<svg width="24" height="24" viewBox="0 0 24 24" fill="none" xmlns="http://www.w3.org/2000/svg">
<g clip-path="url(#clip0_142_5582)">
<path d="M12 23.25C18.2132 23.25 23.25 18.2132 23.25 12C23.25 5.7868 18.2132 0.75 12 0.75C5.7868 0.75 0.75 5.7868 0.75 12C0.75 18.2132 5.7868 23.25 12 23.25Z" fill="#EFEFEF"/>
<path d="M11.6888 1.60871C11.685 1.86371 11.0513 2.02683 10.305 2.09621C9.5588 2.16558 8.9363 2.11683 8.87067 1.87121C8.80505 1.62558 9.37505 1.25996 10.1888 1.18121C11.0025 1.10246 11.6907 1.35371 11.6888 1.60871ZM22.3819 11.1506C22.38 11.0756 22.3838 11.0006 22.3969 10.9237C22.6257 9.56808 22.7344 8.29871 21.2119 7.52246C21.045 7.43621 20.8613 7.36683 20.7338 7.22808C20.4994 6.97496 20.5201 6.58871 20.46 6.24933C20.2782 5.21058 19.1025 4.46621 18.0863 4.74746C17.7525 4.83933 17.4038 5.02308 17.0832 4.89746C16.8244 4.79621 16.6782 4.52808 16.5319 4.29183C16.1175 3.62058 15.4819 3.02433 14.7 2.91558C13.9182 2.80496 13.0294 3.34683 12.9807 4.13433C12.96 4.47746 13.0182 4.88246 13.2807 5.10558C14.3832 6.04496 15.0657 5.35308 15.5775 5.83871C16.1719 6.40308 14.9382 6.55496 15.1425 7.98933C15.2457 8.70558 15.9563 9.37683 16.6782 9.31683C16.9988 9.28871 17.4863 9.27183 17.6644 9.53996C17.805 9.74996 17.7694 9.95058 17.7694 10.2956C17.7694 11.1468 17.8632 11.8162 18.6919 12.0093C18.7988 12.0337 18.9151 12.0468 19.0144 12.0037C19.2338 11.9081 19.2319 11.6137 19.2169 11.3737C19.1513 10.32 18.4088 10.1062 18.2738 9.52683C18.1032 8.78808 19.1119 7.78871 19.9369 8.06808C20.5932 8.29121 20.0588 9.05246 20.5388 9.93183C20.8557 10.515 21.4782 10.7831 21.7088 11.2593C21.9394 11.7356 21.7257 12.0656 21.8382 12.3675C22.0125 12.84 22.29 12.8475 22.4457 12.6806C22.6163 12.4987 22.56 12.1256 22.5188 11.9081C22.4738 11.655 22.3894 11.4075 22.3819 11.1506ZM4.54505 19.1325C4.56567 19.1025 4.73067 19.0593 4.92192 19.2393C5.11317 19.4175 5.67755 19.95 5.90255 20.1543C6.12755 20.3587 5.90817 20.5312 5.72067 20.4975C4.82067 20.34 4.32942 19.4456 4.54505 19.1325ZM7.88255 21.4537C7.89192 21.4181 8.03067 21.3206 8.27255 21.4181C8.51442 21.5156 9.23255 21.8137 9.51567 21.9243C9.7988 22.035 9.65442 22.2731 9.4688 22.3106C8.5688 22.4831 7.79255 21.8231 7.88255 21.4537ZM9.0563 20.7825C9.1688 20.8706 9.28317 21.0093 9.23067 21.1406C9.18192 21.2606 9.02817 21.2925 8.8988 21.2962C8.4713 21.3093 8.0438 21.2006 7.67067 20.9962C7.40817 20.8518 6.72005 20.4075 6.81755 20.0343C6.9563 19.5056 8.76755 20.5593 9.0563 20.7825ZM18.3207 19.875C18.2794 19.8506 18.2082 19.6462 18.4294 19.3931C18.6507 19.14 19.3069 18.3937 19.5563 18.0956C19.8057 17.7975 20.055 18.0618 20.0288 18.3C19.8975 19.4456 18.7557 20.1243 18.3207 19.875ZM20.4394 17.6606C20.4019 17.6531 20.295 17.5143 20.4 17.2631C20.505 17.0118 20.8182 16.2712 20.9344 15.9806C21.0507 15.6881 21.3094 15.8268 21.3488 16.0181C21.54 16.9293 20.8369 17.7412 20.4394 17.6606ZM16.2207 2.49746C16.2132 2.53496 16.0725 2.64558 15.8232 2.54808C15.5738 2.45058 14.8388 2.15433 14.5482 2.04558C14.2575 1.93683 14.4 1.67433 14.5894 1.62933C15.5044 1.41371 16.3069 2.09621 16.2207 2.49746ZM10.5882 2.90058C8.80692 2.57621 8.16942 3.64308 7.6238 3.87558C7.1888 4.05933 6.8888 3.73871 6.21755 4.14933C5.2913 4.71371 5.64192 5.12246 5.55755 5.60058C5.4713 6.07871 4.95942 6.28308 4.58442 6.31871C4.14005 6.36183 4.10442 6.09183 4.31817 5.76746C4.4363 5.58933 4.56192 5.47871 4.62192 5.26871C4.6913 5.02496 4.6538 4.76246 4.7888 4.53746C5.00067 4.18496 5.49567 4.13621 5.8013 3.86246C6.02255 3.66371 6.12942 3.35808 6.36567 3.17621C6.60192 2.99433 6.90942 2.92871 7.2038 2.87621C7.8038 2.76933 8.31005 2.29683 8.03817 2.28183C7.76442 2.26683 7.3088 2.17871 6.9263 2.45996C6.50067 2.77121 5.9288 2.86871 5.47692 3.12558C4.97067 3.41621 4.70442 4.04808 4.55067 4.21871C4.39692 4.38933 3.90192 4.40621 3.56067 4.75871C2.84817 5.48808 1.65942 8.13746 1.65942 9.12933C1.65942 10.0537 2.07005 10.9575 2.98692 11.2087C3.12567 11.2462 3.2738 11.2893 3.3638 11.4018C3.57005 11.6587 3.05442 12.4312 2.97567 12.7425C2.77505 13.5487 2.99442 14.1693 3.35067 14.6137C4.1213 15.5718 4.89005 15.4425 5.66255 14.9681C5.85005 14.8518 6.0113 14.6887 6.21942 14.6118C6.65817 14.4487 6.66942 14.73 6.71255 15.0581C6.91505 16.5693 7.54317 16.9593 7.9838 17.13C8.90067 17.4843 10.0275 17.1468 10.6238 16.365C11.22 15.5831 11.2857 14.415 10.7475 13.5918C9.9263 12.3356 8.30442 12.2662 7.9763 11.5631C7.60692 10.7718 8.6288 10.6612 9.07505 9.97496C9.47255 9.36558 9.55505 8.52746 9.1763 7.89746C8.9888 7.58621 8.67755 7.27496 8.7563 6.92058C8.84442 6.52496 9.9713 5.90433 10.8094 5.18433C11.4057 4.67433 12.8025 3.30371 10.5882 2.90058ZM4.87692 9.16121C4.81317 9.28308 4.71755 9.40496 4.58067 9.42558C4.4513 9.44433 4.32755 9.36183 4.24692 9.25871C4.11942 9.09183 4.08192 8.85746 4.16255 8.66433C4.25817 8.43183 4.58442 8.24621 4.83755 8.35496C4.97442 8.41308 5.01567 8.55183 5.00817 8.70371C4.9988 8.87058 4.93317 9.05246 4.87692 9.16121ZM7.78317 9.71246C7.75692 9.86058 7.71005 10.0031 7.6763 10.1006C7.58442 10.3725 7.4513 10.6575 7.19442 10.7831C7.08192 10.8393 6.9563 10.8581 6.83255 10.8787C6.57567 10.9181 6.25505 10.9312 6.12192 10.7081C6.07317 10.6275 6.06192 10.53 6.05255 10.4362C6.00942 10.0312 5.9888 9.56058 6.28692 9.28496C6.50067 9.08621 6.74067 9.11058 7.00692 9.10871C7.15692 9.10871 7.5188 9.05996 7.6463 9.14246C7.81692 9.25308 7.82255 9.48933 7.78317 9.71246Z" fill="#9D978F"/>
</g>
<defs>
<clipPath id="clip0_142_5582">
<rect width="24" height="24" fill="white"/>
</clipPath>
</defs>
</svg>
