<svg width="24" height="24" viewBox="0 0 24 24" fill="none" xmlns="http://www.w3.org/2000/svg">
<path d="M12.1621 1.14013C12.377 0.873253 12.6622 0.671823 12.9855 0.558629C13.3089 0.445435 13.6575 0.424995 13.9918 0.499622C14.3262 0.574248 14.633 0.740962 14.8775 0.980902C15.122 1.22084 15.2945 1.52443 15.3755 1.85732L16.7401 7.45592L22.1265 9.50676C22.4467 9.62867 22.7264 9.83778 22.9339 10.1104C23.1414 10.383 23.2685 10.7083 23.3007 11.0494C23.3329 11.3905 23.2691 11.7339 23.1163 12.0405C22.9635 12.3472 22.728 12.605 22.4363 12.7848L17.5317 15.8111L17.2459 21.568C17.229 21.9099 17.1168 22.2404 16.922 22.5219C16.7271 22.8034 16.4574 23.0249 16.1433 23.1612C15.8292 23.2975 15.4833 23.3432 15.1445 23.2932C14.8058 23.2432 14.4878 23.0994 14.2265 22.8782L9.82891 19.1462L4.26402 20.6546C3.93344 20.7438 3.58451 20.7387 3.25667 20.6399C2.92883 20.5412 2.63514 20.3527 2.40881 20.0958C2.18247 19.8389 2.03251 19.5238 1.97587 19.1861C1.91923 18.8484 1.95816 18.5016 2.08828 18.1849L4.27519 12.8524L1.12286 8.02783C0.935268 7.74096 0.831746 7.40729 0.824023 7.06461C0.816299 6.72194 0.904683 6.38394 1.07916 6.08891C1.25365 5.79388 1.50725 5.5536 1.81126 5.39528C2.11528 5.23697 2.45754 5.16694 2.79931 5.19313L8.54606 5.62945L12.1621 1.14013Z" fill="#FC826A"/>
</svg>
